<svg xmlns="http://www.w3.org/2000/svg" viewBox="0 0 508 508"><circle cx="254" cy="254" r="254" fill="#90DFAA"/><path d="M270.8 42.8c0 1.6-.4 3.2-1.2 4.4-4.4-2.4-9.6-3.6-15.2-3.6s-10.8 1.2-15.2 3.6c-.8-1.2-1.2-2.8-1.2-4.4 0-6 7.6-11.2 16.8-11.2s16 5.2 16 11.2z" fill="#2B3B4E"/><path d="M282.8 75.2c0 4-.4 8-1.2 12-.8-.4-2-.4-2.8 0 .4-10-5.6-11.6-5.6-11.6-6.4-2.4-9.2-8.8-10-13.2-2.8 2.8-7.2 6-14.4 9.2-20 8-19.2 16-19.2 16h-.4c-1.2-.4-2-.4-2.8 0-.8-4-1.2-8.4-1.2-12C225.2 52.8 238 44 254 44c16-.4 28.8 8.4 28.8 31.2z" fill="#324A5E"/><path d="M274 151.6c-.4 1.6-.4 3.6-.8 5.6h-38.4c-.4-2-.8-3.6-.8-5.6 4.8-14.4 20-15.6 20-15.6s15.6 1.2 20 15.6z" fill="#E6E9EE"/><path d="M272.4 112.8S274.8 126 254 136c-20.8-10-18.4-23.2-18.4-23.2.4-1.6.8-2.8 1.2-4 4.4 8 10.4 13.6 17.2 13.6 6.8 0 12.8-5.6 17.2-13.6.8 1.2 1.2 2.8 1.2 4z" fill="#F9B54C"/><g fill="#324A5E"><path d="M319.6 157.2h-46.4c.4-2 .8-3.6.8-5.6.4-.8 5.2-19.6 2.4-31.6l36.8 17.6 6.4 19.6zM234.8 157.2h-46.4l6-19.2 36.8-17.6c-2.8 11.6 2 30.8 2.4 31.6.4 1.6.8 3.2 1.2 5.2z"/></g><g fill="#FFF"><path d="M272.4 112.8S274.8 126 254 136c0 0 15.6 1.2 20 15.6.4.8 8.8-31.2-1.6-38.8zM235.6 112.8c-10.4 7.6-1.6 39.6-1.6 38.8 4.4-14.4 20-15.6 20-15.6-20.8-10-18.4-23.2-18.4-23.2z"/></g><path d="M281.6 87.6c-.8-.8-2-.8-2.8-.4.4-10-5.6-11.6-5.6-11.6-6.4-2.4-9.2-8.8-10-13.2-2.8 2.8-7.2 6-14.4 9.2-20 8-19.2 16-19.2 16h-.4c-1.2-.4-2-.4-2.8.4-2 1.6-2 5.6 0 9.6 2 3.6 4.8 5.2 6.8 4 4.8 12 12.4 21.2 20.8 21.2 8.8 0 16.4-9.6 20.8-21.2 2 1.2 5.2-.4 6.8-4 2-4.4 2-8.4 0-10z" fill="#FFD05B"/><path d="M304.8 157.2h-4c-1.2-8-5.6-14-8.8-17.2 1.2-.4 2-.8 2.4-1.6 0-.4.4-.8.4-.8 3.6 3.2 8.8 10 10 19.6z" fill="#FF7058"/><g fill="#FFD05B"><path d="M166.4 157.2h175.2V182H166.4zM314.4 261.2l5.2-79.2H188.4l5.2 79.2"/></g><path fill="#F9B54C" d="M318.8 192.8l.4-6.4H188.8l.4 6.4-22.8-10.8h175.2"/><ellipse transform="rotate(-150.17 288.385 134.764)" cx="288.383" cy="134.762" rx="6.8" ry="4.8" fill="#E6E9EE"/><g fill="#FFD05B"><path d="M155.2 305.2l-.4 6c0 1.2-1.2 2.4-2.4 2.4.4-3.2.4-6.8.4-10.4 1.6-.4 2.4.8 2.4 2zM109.2 313.2c-1.6 0-2.4-1.2-2.8-2.4l-.4-6c0-1.2.8-2.4 2.4-2.4h.4c0 4.4 0 8 .4 10.8zM146 336s-.4 0 0 0c-16 12-30 0-30 0 .4-1.6.8-2.8 1.6-4.4 2 1.6 4.8 2.4 7.6 2.4h11.6c2.8 0 5.6-.8 7.6-2.4.4 1.6 1.2 3.2 1.6 4.4z"/></g><path d="M152 292.8c-1.2-10.8-14.4-13.6-21.2-13.6-6.8 0-20 2.8-21.2 13.6-1.6 16.8.4 27.6 4 34.4 2.4 4.4 6.8 7.2 11.6 7.2h11.6c4.8 0 9.2-2.8 11.6-7.2 3.2-6.8 5.6-17.6 3.6-34.4z" fill="#324A5E"/><path d="M149.2 342c-17.6 10-33.2 2-36.8 0 .4-2.8 1.6-4.8 3.6-6 0 0 14 12.4 30 0 1.6 1.2 2.4 3.6 3.2 6z" fill="#FFF"/><path d="M186.8 412.8v-18c0-9.2-1.6-18-4-26.8-2.4-7.2-7.2-12.8-14-16.4l-19.6-9.6c-2.4 1.2-9.6 5.2-18.8 4.8-8.8 0-15.6-3.6-18-4.8l-19.6 9.2c-6.8 3.2-12 9.2-14 16.4-2.8 8.8-4 17.6-4 26.8v18l112 .4z" fill="#E6E9EE"/><path d="M171.2 412.8v-37.2c0-7.2-6-13.2-13.2-13.2h-54.4c-7.2 0-13.2 6-13.2 13.2v37.2h80.8z" fill="#324A5E"/><g fill="#FFD05B"><path d="M275.6 313.2c-1.2 0-2.4-1.2-2.4-2.4l.4-6c0-1.2 1.2-2.4 2.8-2.4 1.2 0 2.4 1.2 2.4 2.4l-.8 6.4c0 1.2-1.2 2-2.4 2zM232.4 313.2c-1.2 0-2.4-1.2-2.4-2.4l-.4-6c0-1.2.8-2.4 2.4-2.4 1.2 0 2.4 1.2 2.8 2.4l.4 6c-.4 1.6-1.2 2.4-2.8 2.4zM269.2 336c-16 12-30 0-30 0 .4-1.6.8-2.8 1.6-4.4 2 1.6 4.8 2.4 7.6 2.4H260c2.8 0 5.6-.8 7.6-2.4.8 1.6 1.2 3.2 1.6 4.4z"/></g><path d="M275.2 292.8c-1.2-10.8-14.4-13.6-21.2-13.6-6.8 0-20 2.8-21.2 13.6-1.6 16.8.4 27.6 4 34.4 2.4 4.4 6.8 7.2 11.6 7.2H260c4.8 0 9.2-2.8 11.6-7.2 3.2-6.8 5.6-17.6 3.6-34.4z" fill="#324A5E"/><path d="M272.4 342c-17.6 10-33.2 2-36.8 0 .4-2.8 1.6-4.8 3.6-6 0 0 14 12.4 30 0 1.6 1.2 2.8 3.6 3.2 6z" fill="#FFF"/><path d="M310.4 412.8v-18c0-9.2-1.6-18-4-26.8-2.4-7.2-7.2-12.8-14-16.4l-20-9.6c-2.4 1.2-9.6 5.2-18.8 4.8-8.8 0-15.6-3.6-18-4.8l-19.6 9.2c-6.8 3.2-12 9.2-14 16.4-2.8 8.8-4 17.6-4 26.8v18l112.4.4z" fill="#E6E9EE"/><path d="M294.4 412.8v-37.2c0-7.2-6-13.2-13.2-13.2h-54.4c-7.2 0-13.2 6-13.2 13.2v37.2h80.8z" fill="#324A5E"/><g fill="#FFD05B"><path d="M398.8 313.2c-1.2 0-2.4-1.2-2.4-2.4l.4-6c0-1.2 1.2-2.4 2.8-2.4 1.2 0 2.4 1.2 2.4 2.4l-.4 6c-.4 1.6-1.6 2.4-2.8 2.4zM355.6 313.2c-1.2 0-2.4-1.2-2.4-2.4l-.4-6c0-1.2.8-2.4 2.4-2.4 1.2 0 2.4 1.2 2.8 2.4l.4 6c-.4 1.6-1.2 2.4-2.8 2.4zM392.4 336c-16 12-30 0-30 0 .4-1.6.8-2.8 1.6-4 2 1.6 4.8 2.4 7.6 2.4h11.6c2.8 0 5.6-.8 7.6-2.4.8 1.2 1.2 2.8 1.6 4z"/></g><path d="M398.4 292.8c-1.2-10.8-14.4-13.6-21.2-13.6-6.8 0-20 2.8-21.2 13.6-1.6 16.8.4 27.6 4 34.4 2.4 4.4 6.8 7.2 11.6 7.2h11.6c4.8 0 9.2-2.8 11.6-7.2 3.6-6.8 5.6-17.6 3.6-34.4z" fill="#324A5E"/><path d="M395.6 342c-17.6 10-33.2 2-36.8 0 .4-2.8 1.6-4.8 3.6-6 0 0 14 12.4 30 0 1.6 1.2 2.8 3.6 3.2 6z" fill="#FFF"/><path d="M433.6 412.8v-18c0-9.2-1.6-18-4-26.8-2.4-7.2-7.2-12.8-14-16.4l-20-9.6c-2.4 1.2-9.6 5.2-18.8 4.8-8.8 0-15.6-3.6-18-4.8l-19.6 9.2c-6.8 3.2-12 9.2-14 16.4-2.8 8.8-4 17.6-4 26.8v18l112.4.4z" fill="#E6E9EE"/><path d="M417.6 412.8v-37.2c0-7.2-6-13.2-13.2-13.2H350c-7.2 0-13.2 6-13.2 13.2v37.2h80.8z" fill="#324A5E"/></svg>