<?xml version="1.0" encoding="windows-1252"?>
<!-- Generator: Adobe Illustrator 18.1.1, SVG Export Plug-In . SVG Version: 6.00 Build 0)  -->
<svg version="1.1" id="Layer_1" xmlns="http://www.w3.org/2000/svg" xmlns:xlink="http://www.w3.org/1999/xlink" x="0px" y="0px" viewBox="-19 0 269 250" enable-background="new -19 0 269 250" xml:space="preserve">
<g>
	<path fill="#666666" d="M221.802,191.14c12.559-18.69,19.889-41.187,19.889-65.397c0-64.844-52.566-117.409-117.409-117.409   S6.873,60.9,6.873,125.743c0,24.21,7.33,46.706,19.889,65.397H221.802z"/>
	<path fill="#8A5D3B" d="M23.775,186.646c20.572,33.978,57.886,56.689,100.506,56.689s79.934-22.71,100.506-56.689H23.775z"/>
	<line fill="none" x1="15.707" y1="193.161" x2="6.354" y2="193.161"/>
	<line fill="none" x1="242.324" y1="197.837" x2="242.324" y2="193.161"/>
</g>
<g>
	<rect x="-16.079" y="175.334" fill="#26D7FD" width="80" height="8"/>
	<polyline fill="#00A1BC" points="-16.079,179.334 63.921,179.334 63.921,183.334 -16.079,183.334  "/>
	<rect x="4.921" y="175.334" fill="#FFFFFF" width="3" height="8"/>
	<rect x="10.921" y="175.334" fill="#FFFFFF" width="33" height="8"/>
	<rect x="10.921" y="179.334" fill="#EDEDED" width="33" height="4"/>
	<rect x="4.921" y="179.334" fill="#EDEDED" width="3" height="4"/>
</g>
<g>
	<path fill="#FFFFFF" d="M51.627,166.334h-52c-2.187,0-3.96,1.773-3.96,3.96v0.08c0,2.187,1.773,3.96,3.96,3.96h52"/>
	<path fill="#CDCDCD" d="M51.881,169.334v-3h-52c-1.854,0-3.398,1.28-3.829,3H51.881z"/>
	<path fill="none" stroke="#B272C2" stroke-width="2" stroke-linecap="round" stroke-miterlimit="10" d="M51.667,166.334h-52   c-2.187,0-3.96,1.773-3.96,3.96v0.08c0,2.187,1.773,3.96,3.96,3.96h52"/>
</g>
<path fill="#A87C4F" d="M247.782,188.834c0,3.038-2.462,5.5-5.5,5.5h-236c-3.038,0-5.5-2.462-5.5-5.5l0,0c0-3.038,2.462-5.5,5.5-5.5  h236C245.319,183.334,247.782,185.797,247.782,188.834L247.782,188.834z"/>
<path opacity="0.2" enable-background="new    " d="M210.745,205.334c3.197-3.479,6.185-7.153,8.948-11H28.871  c2.763,3.847,5.75,7.521,8.948,11H210.745z"/>
<path fill="#BABABA" d="M108.98,155.992c0.419,2.085,0.64,4.237,0.64,6.442c0,7.251-2.402,13.924-6.418,19.323h41.154  c-4.015-5.399-6.418-12.072-6.418-19.323c0-2.205,0.221-4.357,0.64-6.442H108.98z"/>
<path fill="#D6D6D6" d="M155.667,182.561c0,0.426-0.342,0.773-0.77,0.773H92.495c-0.428,0-0.77-0.347-0.77-0.773v-6.457  c0-0.428,0.342-0.77,0.77-0.77h62.401c0.429,0,0.77,0.342,0.77,0.77v6.457H155.667z"/>
<path fill="#D6D6D6" d="M23.667,136.334v12.273c0,4.266,3.467,7.727,7.737,7.727h184.531c4.266,0,7.732-3.462,7.732-7.727v-12.273  H23.667z"/>
<g>
	<path fill="#333333" d="M23.667,136.334V30.065c0-4.268,3.467-7.731,7.737-7.731h184.531c4.266,0,7.732,3.463,7.732,7.731v106.269"/>
	<rect x="33.667" y="32.334" fill="#404041" width="180" height="94"/>
	<path fill="#666766" d="M128.835,145.887c0,2.79-2.263,5.053-5.055,5.053c-2.787,0-5.05-2.263-5.05-5.053s2.263-5.051,5.05-5.051   C126.572,140.837,128.835,143.097,128.835,145.887z"/>
</g>
<rect x="49.667" y="47.334" opacity="0.5" fill="#FFFFFF" enable-background="new    " width="60" height="57"/>
<path opacity="0.1" enable-background="new    " d="M62.667,104.334h47v-52h-45c-1.105,0-2,0.895-2,2V104.334z"/>
<path fill="#333333" d="M49.667,47.334v-4.31c0-1.486,1.204-2.69,2.69-2.69h54.31c1.486,0,2.69,1.204,2.69,2.69v4.31"/>
<rect x="67.667" y="59.334" fill="#FFFFFF" width="112" height="67"/>
<path fill="#333333" d="M67.667,59.334v-4.31c0-1.486,1.204-2.69,2.69-2.69h106.62c1.486,0,2.69,1.204,2.69,2.69v4.31"/>
<circle fill="#F38D82" cx="72.348" cy="55.977" r="1.681"/>
<circle fill="#FFD263" cx="77.728" cy="55.977" r="1.681"/>
<circle fill="#A1CF64" cx="83.109" cy="55.977" r="1.681"/>
<path fill="none" stroke="#666666" stroke-width="2" stroke-linecap="round" stroke-linejoin="round" stroke-miterlimit="10" d="  M138.667,76.334"/>
<path fill="none" stroke="#666666" stroke-width="2" stroke-linecap="round" stroke-linejoin="round" stroke-miterlimit="10" d="  M124.862,76.309"/>
<path fill="none" stroke="#666666" stroke-width="2" stroke-linecap="round" stroke-linejoin="round" stroke-miterlimit="10" d="  M138.667,74.36"/>
<path fill="none" stroke="#666666" stroke-width="2" stroke-linecap="round" stroke-linejoin="round" stroke-miterlimit="10" d="  M124.862,74.334"/>
<path fill="none" stroke="#666666" stroke-width="2" stroke-linecap="round" stroke-linejoin="round" stroke-miterlimit="10" d="  M138.65,84.871"/>
<path fill="none" stroke="#666666" stroke-width="2" stroke-linecap="round" stroke-linejoin="round" stroke-miterlimit="10" d="  M124.845,84.846"/>
<path fill="none" stroke="#666666" stroke-width="2" stroke-linecap="round" stroke-linejoin="round" stroke-miterlimit="10" d="  M138.634,93.871"/>
<path fill="none" stroke="#666666" stroke-width="2" stroke-linecap="round" stroke-linejoin="round" stroke-miterlimit="10" d="  M124.829,93.846"/>
<path fill="none" stroke="#666666" stroke-width="2" stroke-linecap="round" stroke-linejoin="round" stroke-miterlimit="10" d="  M166.667,75.922"/>
<path fill="none" stroke="#666666" stroke-width="2" stroke-linecap="round" stroke-linejoin="round" stroke-miterlimit="10" d="  M152.862,75.897"/>
<path fill="none" stroke="#666666" stroke-width="2" stroke-linecap="round" stroke-linejoin="round" stroke-miterlimit="10" d="  M138.667,73.334"/>
<path fill="none" stroke="#666666" stroke-width="2" stroke-linecap="round" stroke-linejoin="round" stroke-miterlimit="10" d="  M124.862,73.309"/>
<path fill="none" stroke="#666666" stroke-width="2" stroke-linecap="round" stroke-linejoin="round" stroke-miterlimit="10" d="  M138.65,84.871"/>
<path fill="none" stroke="#666666" stroke-width="2" stroke-linecap="round" stroke-linejoin="round" stroke-miterlimit="10" d="  M124.845,84.846"/>
<path fill="none" stroke="#666666" stroke-width="2" stroke-linecap="round" stroke-linejoin="round" stroke-miterlimit="10" d="  M166.667,75.922"/>
<path fill="none" stroke="#666666" stroke-width="2" stroke-linecap="round" stroke-linejoin="round" stroke-miterlimit="10" d="  M152.862,75.897"/>
<g>
	<rect x="208.751" y="147.334" fill="#FFE300" width="27.916" height="36"/>
	<path fill="#FFE300" d="M236.667,175.834c-5.79,0-10.5-4.71-10.5-10.5s4.71-10.5,10.5-10.5s10.5,4.71,10.5,10.5   S242.457,175.834,236.667,175.834z M236.667,159.834c-3.032,0-5.5,2.467-5.5,5.5s2.468,5.5,5.5,5.5s5.5-2.467,5.5-5.5   S239.699,159.834,236.667,159.834z"/>
	<polyline opacity="0.1" enable-background="new    " points="232.667,183.334 232.667,183.334 236.667,183.334 236.667,147.334    232.667,147.334 232.667,179.334  "/>
	<g opacity="0.2">
		<path opacity="0.4" enable-background="new    " d="M240.667,169.097c-1.004,1.066-2.424,1.737-4,1.737v5    c1.416,0,2.766-0.285,4-0.796V169.097z"/>
		<path opacity="0.4" enable-background="new    " d="M236.667,159.834c1.576,0,2.996,0.671,4,1.737v-5.941    c-1.234-0.51-2.584-0.796-4-0.796V159.834z"/>
	</g>
</g>
<path fill="none" stroke="#FFFFFF" stroke-width="2" stroke-linecap="round" stroke-miterlimit="10" d="M225.667,127.334v2.02  c0,1.094-0.886,1.98-1.98,1.98h-13.04c-1.094,0-1.98,0.886-1.98,1.98v0.04c0,1.094,0.886,1.98,1.98,1.98h21.04  c1.094,0,1.98,0.886,1.98,1.98v0.04c0,1.094-0.886,1.98-1.98,1.98h-7.04c-1.094,0-1.98,0.886-1.98,1.98v1.02"/>
<rect x="203.667" y="36.334" fill="#666666" width="5" height="5"/>
<rect x="194.667" y="36.334" fill="#666666" width="5" height="5"/>
<rect x="203.667" y="45.334" fill="#666666" width="5" height="5"/>
<rect x="194.667" y="45.334" fill="#666666" width="5" height="5"/>
<rect x="203.667" y="54.334" fill="#666666" width="5" height="5"/>
<rect x="203.667" y="63.334" fill="#666666" width="5" height="5"/>
<rect x="203.667" y="72.334" fill="#666666" width="5" height="5"/>
<g>
	<g>
		<path fill="#44E17D" d="M124.322,70.988c-11.848,0-21.453,9.605-21.453,21.453s9.605,21.453,21.453,21.453    s21.453-9.605,21.453-21.453S136.171,70.988,124.322,70.988L124.322,70.988z"/>
	</g>
	<g>
		<path fill="#3EC66B" d="M121.494,103.115c-0.219,0-0.43-0.087-0.585-0.244l-7.068-7.122c-0.322-0.323-0.319-0.845,0.003-1.166    c0.324-0.321,0.846-0.318,1.166,0.005l6.422,6.47L133.58,86.1c0.287-0.354,0.807-0.407,1.16-0.12    c0.353,0.288,0.408,0.807,0.119,1.161l-12.725,15.67c-0.147,0.181-0.364,0.292-0.599,0.304    C121.521,103.115,121.507,103.115,121.494,103.115z"/>
		<rect x="113.601" y="93.007" fill="#3EC66B" width="1.198" height="2.245"/>
		<rect x="133.566" y="84.563" fill="#3EC66B" width="1.476" height="2.076"/>
	</g>
	<path fill="#FFFFFF" d="M121.494,101.101c-0.219,0-0.43-0.087-0.585-0.244l-7.068-7.122c-0.322-0.323-0.319-0.845,0.003-1.166   c0.324-0.321,0.846-0.318,1.166,0.005l6.422,6.47l12.147-14.957c0.287-0.354,0.807-0.407,1.16-0.12   c0.353,0.288,0.408,0.807,0.119,1.161l-12.725,15.67c-0.147,0.181-0.364,0.292-0.599,0.304   C121.521,101.101,121.507,101.101,121.494,101.101z"/>
</g>
</svg>