<?xml version="1.0" encoding="UTF-8"?>
<svg width="47px" height="47px" viewBox="0 0 47 47" version="1.1" xmlns="http://www.w3.org/2000/svg" xmlns:xlink="http://www.w3.org/1999/xlink">
    <!-- Generator: Sketch 41.1 (35376) - http://www.bohemiancoding.com/sketch -->
    <title>Shape</title>
    <desc>Created with Sketch.</desc>
    <defs/>
    <g id="Master" stroke="none" stroke-width="1" fill="none" fill-rule="evenodd">
        <g id="Home" transform="translate(-956.000000, -1348.000000)" fill="#002163">
            <g id="Entrepreneurs" transform="translate(0.000000, 922.000000)">
                <g id="Group-4" transform="translate(900.000000, 0.000000)">
                    <g id="Puff" transform="translate(0.000000, 355.000000)">
                        <g transform="translate(56.000000, 71.000000)" id="Shape">
                            <path d="M41.8727273,0 C39.0450364,0 36.7454545,2.29958182 36.7454545,5.12727273 C36.7454545,6.01172727 36.9702,6.84405455 37.3658545,7.57127273 L28.9665273,15.9706 C27.8086182,15.0690545 26.3593091,14.5272727 24.7818182,14.5272727 C23.2043273,14.5272727 21.7550182,15.0690545 20.5962545,15.9697455 L14.0427455,9.41623636 C14.3435455,8.90778182 14.5272727,8.32327273 14.5272727,7.69090909 C14.5272727,5.80578182 12.9942182,4.27272727 11.1090909,4.27272727 C9.22396364,4.27272727 7.69090909,5.80578182 7.69090909,7.69090909 C7.69090909,9.57603636 9.22396364,11.1090909 11.1090909,11.1090909 C11.7414545,11.1090909 12.3259636,10.9253636 12.8344182,10.6245636 L19.3879273,17.1780727 C18.4872364,18.3368364 17.9454545,19.7861455 17.9454545,21.3636364 C17.9454545,22.9411273 18.4872364,24.3904364 19.3879273,25.5483455 L8.56596364,36.3711636 C7.65501818,35.5448182 6.45096364,35.0363636 5.12727273,35.0363636 C2.29958182,35.0363636 0,37.3359455 0,40.1636364 C0,42.9913273 2.29958182,45.2909091 5.12727273,45.2909091 C7.95496364,45.2909091 10.2545455,42.9913273 10.2545455,40.1636364 C10.2545455,39.2791818 10.0298,38.4468545 9.63414545,37.7196364 L20.5971091,26.7566727 C21.5422364,27.4915818 22.6822,27.9838 23.9281273,28.1401818 L23.9281273,36.8223636 C21.5072,37.2308364 19.6554,39.3364364 19.6554,41.8727273 C19.6554,44.7004182 21.9549818,47 24.7826727,47 C27.6103636,47 29.9099455,44.7004182 29.9099455,41.8727273 C29.9099455,39.3372909 28.0581455,37.2316909 25.6372182,36.8223636 L25.6372182,28.1401818 C26.8831455,27.9838 28.0231091,27.4915818 28.9682364,26.7566727 L35.5217455,33.3101818 C35.2200909,33.8194909 35.0363636,34.404 35.0363636,35.0363636 C35.0363636,36.9214909 36.5694182,38.4545455 38.4545455,38.4545455 C40.3396727,38.4545455 41.8727273,36.9214909 41.8727273,35.0363636 C41.8727273,33.1512364 40.3396727,31.6181818 38.4545455,31.6181818 C37.8221818,31.6181818 37.2376727,31.8019091 36.7292182,32.1027091 L30.1757091,25.5492 C31.0764,24.3904364 31.6181818,22.9411273 31.6181818,21.3636364 C31.6181818,19.7861455 31.0764,18.3368364 30.1757091,17.1789273 L38.4348909,8.91974545 C39.3449818,9.74609091 40.5490364,10.2545455 41.8727273,10.2545455 C44.7004182,10.2545455 47,7.95496364 47,5.12727273 C47,2.29958182 44.7004182,0 41.8727273,0 L41.8727273,0 Z M9.4,7.69090909 C9.4,6.74834545 10.1665273,5.98181818 11.1090909,5.98181818 C12.0516545,5.98181818 12.8181818,6.74834545 12.8181818,7.69090909 C12.8181818,8.63347273 12.0516545,9.4 11.1090909,9.4 C10.1665273,9.4 9.4,8.63347273 9.4,7.69090909 L9.4,7.69090909 Z M5.12727273,43.5818182 C3.24214545,43.5818182 1.70909091,42.0487636 1.70909091,40.1636364 C1.70909091,38.2785091 3.24214545,36.7454545 5.12727273,36.7454545 C7.0124,36.7454545 8.54545455,38.2785091 8.54545455,40.1636364 C8.54545455,42.0487636 7.0124,43.5818182 5.12727273,43.5818182 L5.12727273,43.5818182 Z M28.2,41.8727273 C28.2,43.7578545 26.6669455,45.2909091 24.7818182,45.2909091 C22.8966909,45.2909091 21.3636364,43.7578545 21.3636364,41.8727273 C21.3636364,39.9876 22.8966909,38.4545455 24.7818182,38.4545455 C26.6669455,38.4545455 28.2,39.9876 28.2,41.8727273 L28.2,41.8727273 Z M24.7818182,26.4909091 C21.9541273,26.4909091 19.6545455,24.1913273 19.6545455,21.3636364 C19.6545455,18.5359455 21.9541273,16.2363636 24.7818182,16.2363636 C27.6095091,16.2363636 29.9090909,18.5359455 29.9090909,21.3636364 C29.9090909,24.1913273 27.6095091,26.4909091 24.7818182,26.4909091 L24.7818182,26.4909091 Z M40.1636364,35.0363636 C40.1636364,35.9789273 39.3971091,36.7454545 38.4545455,36.7454545 C37.5119818,36.7454545 36.7454545,35.9789273 36.7454545,35.0363636 C36.7454545,34.0938 37.5119818,33.3272727 38.4545455,33.3272727 C39.3971091,33.3272727 40.1636364,34.0938 40.1636364,35.0363636 L40.1636364,35.0363636 Z M41.8727273,8.54545455 C39.9876,8.54545455 38.4545455,7.0124 38.4545455,5.12727273 C38.4545455,3.24214545 39.9876,1.70909091 41.8727273,1.70909091 C43.7578545,1.70909091 45.2909091,3.24214545 45.2909091,5.12727273 C45.2909091,7.0124 43.7578545,8.54545455 41.8727273,8.54545455 L41.8727273,8.54545455 Z"/>
                        </g>
                    </g>
                </g>
            </g>
        </g>
    </g>
</svg>