<?xml version="1.0" encoding="UTF-8"?>
<!-- Generator: Adobe Illustrator 19.1.0, SVG Export Plug-In . SVG Version: 6.00 Build 0)  -->
<svg version="1.1" xmlns="http://www.w3.org/2000/svg" xmlns:xlink="http://www.w3.org/1999/xlink" x="0px" y="0px" viewBox="0 0 360 360" style="enable-background:new 0 0 360 360;" xml:space="preserve">
<style type="text/css">
	.st0{fill:#176992;}
	.st1{fill:#FCDD7C;}
	.st2{fill:#47B2E8;}
	.st3{fill:#7FC7EB;}
	.st4{fill:#C4DEF2;}
	.st5{fill:#D3D3D3;}
	.st6{fill:#F2F2F2;}
	.st7{fill:#FFFFFF;}
	.st8{clip-path:url(#SVGID_2_);fill:#176992;}
	.st9{clip-path:url(#SVGID_2_);fill:none;stroke:#F9F9F9;stroke-width:11;stroke-miterlimit:10;}
	.st10{fill:#F9F9F9;}
	.st11{clip-path:url(#SVGID_4_);fill:#176992;}
	.st12{clip-path:url(#SVGID_4_);}
	.st13{clip-path:url(#SVGID_4_);fill:#FFFFFF;}
	.st14{clip-path:url(#SVGID_6_);fill:#47B2E8;}
	.st15{fill:none;stroke:#FCDD7C;stroke-width:5;stroke-linecap:round;stroke-miterlimit:10;}
	.st16{clip-path:url(#SVGID_8_);}
</style>
<g id="Layer_1">
</g>
<g id="_x30_6-save">
</g>
<g id="_x30_5-scale">
</g>
<g id="_x30_4-track">
</g>
<g id="_x30_3-iterate">
</g>
<g id="_x30_2-customize">
</g>
<g id="_x30_1-trigger">
	<g>
		<circle class="st6" cx="180" cy="180" r="169.7"/>
		<path class="st3" d="M312.3,265.6H47.7V97c0-7.7,6.3-14,14-14h236.7c7.7,0,14,6.3,14,14V265.6z"/>
		<rect x="62" y="100.3" class="st4" width="236" height="150.7"/>
		<path class="st2" d="M20.6,265.6h318.8v0.7c0,7.7-6.3,14-14,14H34.6c-7.7,0-14-6.3-14-14V265.6z"/>
		<path class="st0" d="M194.8,272.6h-29.6c-3.9,0-7-3.1-7-7l0,0h43.6l0,0C201.8,269.4,198.7,272.6,194.8,272.6z"/>
		<g>
			<g>
				<path class="st10" d="M219.7,151.2H82.6v-7.8c0-4.4,3.6-8,8-8h121.1c4.4,0,8,3.6,8,8V151.2z"/>
				<rect x="82.3" y="151.2" class="st0" width="137.4" height="89.2"/>
				<circle class="st5" cx="92.9" cy="143.7" r="3.3"/>
				<circle class="st5" cx="103.5" cy="143.7" r="3.3"/>
				<circle class="st5" cx="114" cy="143.7" r="3.3"/>
				<path class="st2" d="M116,160.1c0,0.8-0.6,1.4-1.4,1.4H91.3c-0.8,0-1.4-0.6-1.4-1.4l0,0c0-0.8,0.6-1.4,1.4-1.4h23.3      C115.3,158.7,116,159.3,116,160.1L116,160.1z"/>
				<path class="st2" d="M193.7,166.6c0,0.8-0.6,1.4-1.4,1.4h-25c-0.8,0-1.4-0.6-1.4-1.4l0,0c0-0.8,0.6-1.4,1.4-1.4h25      C193.1,165.2,193.7,165.8,193.7,166.6L193.7,166.6z"/>
				<path class="st2" d="M155.7,173.1c0,0.8-0.6,1.4-1.4,1.4h-28c-0.8,0-1.4-0.6-1.4-1.4l0,0c0-0.8,0.6-1.4,1.4-1.4h28      C155.1,171.7,155.7,172.3,155.7,173.1L155.7,173.1z"/>
				<path class="st2" d="M116,179.6c0,0.8-0.6,1.4-1.4,1.4H91.3c-0.8,0-1.4-0.6-1.4-1.4l0,0c0-0.8,0.6-1.4,1.4-1.4h23.3      C115.3,178.2,116,178.8,116,179.6L116,179.6z"/>
				<path class="st2" d="M181.5,179.6c0,0.8-0.6,1.4-1.4,1.4h-32.4c-0.8,0-1.4-0.6-1.4-1.4l0,0c0-0.8,0.6-1.4,1.4-1.4h32.4      C180.8,178.2,181.5,178.8,181.5,179.6L181.5,179.6z"/>
				<path class="st2" d="M173.5,186.1c0,0.8-0.6,1.4-1.4,1.4h-38.1c-0.8,0-1.4-0.6-1.4-1.4l0,0c0-0.8,0.6-1.4,1.4-1.4h38.1      C172.9,184.7,173.5,185.3,173.5,186.1L173.5,186.1z"/>
				<path class="st2" d="M154.2,192.6c0,0.8-0.6,1.4-1.4,1.4h-27c-0.8,0-1.4-0.6-1.4-1.4l0,0c0-0.8,0.6-1.4,1.4-1.4h27      C153.6,191.2,154.2,191.8,154.2,192.6L154.2,192.6z"/>
				<path class="st2" d="M133.8,199.1c0,0.8-0.6,1.4-1.4,1.4h-41c-0.8,0-1.4-0.6-1.4-1.4l0,0c0-0.8,0.6-1.4,1.4-1.4h41      C133.2,197.7,133.8,198.3,133.8,199.1L133.8,199.1z"/>
				<path class="st2" d="M196.8,205.6c0,0.8-0.6,1.4-1.4,1.4H164c-0.8,0-1.4-0.6-1.4-1.4l0,0c0-0.8,0.6-1.4,1.4-1.4h31.4      C196.2,204.2,196.8,204.8,196.8,205.6L196.8,205.6z"/>
				<path class="st2" d="M144.8,212.1c0,0.8-0.6,1.4-1.4,1.4H91.3c-0.8,0-1.4-0.6-1.4-1.4l0,0c0-0.8,0.6-1.4,1.4-1.4h52.1      C144.2,210.7,144.8,211.3,144.8,212.1L144.8,212.1z"/>
				<path class="st2" d="M172,225.1c0,0.8-0.6,1.4-1.4,1.4H143c-0.8,0-1.4-0.6-1.4-1.4l0,0c0-0.8,0.6-1.4,1.4-1.4h27.7      C171.4,223.7,172,224.3,172,225.1L172,225.1z"/>
				<path class="st2" d="M184.3,231.6c0,0.8-0.6,1.4-1.4,1.4h-28.3c-0.8,0-1.4-0.6-1.4-1.4l0,0c0-0.8,0.6-1.4,1.4-1.4h28.3      C183.6,230.2,184.3,230.8,184.3,231.6L184.3,231.6z"/>
				<path class="st4" d="M149.6,160.1c0,0.8-0.6,1.4-1.4,1.4h-28c-0.8,0-1.4-0.6-1.4-1.4l0,0c0-0.8,0.6-1.4,1.4-1.4h28      C148.9,158.7,149.6,159.3,149.6,160.1L149.6,160.1z"/>
				<path class="st4" d="M134.4,166.6c0,0.8-0.6,1.4-1.4,1.4H91.3c-0.8,0-1.4-0.6-1.4-1.4l0,0c0-0.8,0.6-1.4,1.4-1.4H133      C133.7,165.2,134.4,165.8,134.4,166.6L134.4,166.6z"/>
				<path class="st4" d="M143.4,179.6c0,0.8-0.6,1.4-1.4,1.4h-21.8c-0.8,0-1.4-0.6-1.4-1.4l0,0c0-0.8,0.6-1.4,1.4-1.4H142      C142.8,178.2,143.4,178.8,143.4,179.6L143.4,179.6z"/>
				<path class="st4" d="M207.4,179.6c0,0.8-0.6,1.4-1.4,1.4h-20.3c-0.8,0-1.4-0.6-1.4-1.4l0,0c0-0.8,0.6-1.4,1.4-1.4H206      C206.8,178.2,207.4,178.8,207.4,179.6L207.4,179.6z"/>
				<path class="st4" d="M121.5,192.6c0,0.8-0.6,1.4-1.4,1.4H91.4c-0.8,0-1.4-0.6-1.4-1.4l0,0c0-0.8,0.6-1.4,1.4-1.4h28.7      C120.9,191.2,121.5,191.8,121.5,192.6L121.5,192.6z"/>
				<path class="st4" d="M190.6,199.1c0,0.8-0.6,1.4-1.4,1.4h-18.5c-0.8,0-1.4-0.6-1.4-1.4l0,0c0-0.8,0.6-1.4,1.4-1.4h18.5      C190,197.7,190.6,198.3,190.6,199.1L190.6,199.1z"/>
				<path class="st4" d="M159.7,205.6c0,0.8-0.6,1.4-1.4,1.4h-27.7c-0.8,0-1.4-0.6-1.4-1.4l0,0c0-0.8,0.6-1.4,1.4-1.4h27.7      C159.1,204.2,159.7,204.8,159.7,205.6L159.7,205.6z"/>
				<path class="st4" d="M178.1,218.6c0,0.8-0.6,1.4-1.4,1.4h-52.2c-0.8,0-1.4-0.6-1.4-1.4l0,0c0-0.8,0.6-1.4,1.4-1.4h52.2      C177.5,217.2,178.1,217.8,178.1,218.6L178.1,218.6z"/>
				<path class="st4" d="M138.7,225.1c0,0.8-0.6,1.4-1.4,1.4h-46c-0.8,0-1.4-0.6-1.4-1.4l0,0c0-0.8,0.6-1.4,1.4-1.4h46      C138.1,223.7,138.7,224.3,138.7,225.1L138.7,225.1z"/>
				<path class="st1" d="M169.2,160.1c0,0.8-0.6,1.4-1.4,1.4h-14c-0.8,0-1.4-0.6-1.4-1.4l0,0c0-0.8,0.6-1.4,1.4-1.4h14      C168.6,158.7,169.2,159.3,169.2,160.1L169.2,160.1z"/>
				<path class="st1" d="M163.1,166.6c0,0.8-0.6,1.4-1.4,1.4h-23.1c-0.8,0-1.4-0.6-1.4-1.4l0,0c0-0.8,0.6-1.4,1.4-1.4h23.1      C162.4,165.2,163.1,165.8,163.1,166.6L163.1,166.6z"/>
				<path class="st1" d="M122.1,173.1c0,0.8-0.6,1.4-1.4,1.4H91.3c-0.8,0-1.4-0.6-1.4-1.4l0,0c0-0.8,0.6-1.4,1.4-1.4h29.4      C121.5,171.7,122.1,172.3,122.1,173.1L122.1,173.1z"/>
				<path class="st1" d="M109.3,186.1c0,0.8-0.6,1.4-1.4,1.4H91.4c-0.8,0-1.4-0.6-1.4-1.4l0,0c0-0.8,0.6-1.4,1.4-1.4h16.5      C108.6,184.7,109.3,185.3,109.3,186.1L109.3,186.1z"/>
				<path class="st1" d="M129.7,186.1c0,0.8-0.6,1.4-1.4,1.4h-14.8c-0.8,0-1.4-0.6-1.4-1.4l0,0c0-0.8,0.6-1.4,1.4-1.4h14.8      C129.1,184.7,129.7,185.3,129.7,186.1L129.7,186.1z"/>
				<path class="st1" d="M178.4,192.6c0,0.8-0.6,1.4-1.4,1.4h-18.5c-0.8,0-1.4-0.6-1.4-1.4l0,0c0-0.8,0.6-1.4,1.4-1.4H177      C177.8,191.2,178.4,191.8,178.4,192.6L178.4,192.6z"/>
				<path class="st1" d="M166.5,199.1c0,0.8-0.6,1.4-1.4,1.4h-27c-0.8,0-1.4-0.6-1.4-1.4l0,0c0-0.8,0.6-1.4,1.4-1.4h27      C165.9,197.7,166.5,198.3,166.5,199.1L166.5,199.1z"/>
				<path class="st1" d="M126.4,205.6c0,0.8-0.6,1.4-1.4,1.4H91.4c-0.8,0-1.4-0.6-1.4-1.4l0,0c0-0.8,0.6-1.4,1.4-1.4h33.7      C125.8,204.2,126.4,204.8,126.4,205.6L126.4,205.6z"/>
				<path class="st1" d="M172,212.1c0,0.8-0.6,1.4-1.4,1.4h-21.5c-0.8,0-1.4-0.6-1.4-1.4l0,0c0-0.8,0.6-1.4,1.4-1.4h21.5      C171.4,210.7,172,211.3,172,212.1L172,212.1z"/>
				<path class="st1" d="M196.8,225.1c0,0.8-0.6,1.4-1.4,1.4h-19.1c-0.8,0-1.4-0.6-1.4-1.4l0,0c0-0.8,0.6-1.4,1.4-1.4h19.1      C196.2,223.7,196.8,224.3,196.8,225.1L196.8,225.1z"/>
				<path class="st1" d="M120.3,218.6c0,0.8-0.6,1.4-1.4,1.4H91.3c-0.8,0-1.4-0.6-1.4-1.4l0,0c0-0.8,0.6-1.4,1.4-1.4h27.6      C119.7,217.2,120.3,217.8,120.3,218.6L120.3,218.6z"/>
				<path class="st1" d="M150.4,231.6c0,0.8-0.6,1.4-1.4,1.4H91.3c-0.8,0-1.4-0.6-1.4-1.4l0,0c0-0.8,0.6-1.4,1.4-1.4H149      C149.7,230.2,150.4,230.8,150.4,231.6L150.4,231.6z"/>
			</g>
			<g>
				<path class="st10" d="M277.7,126.7H140.6v-7.8c0-4.4,3.6-8,8-8h121.1c4.4,0,8,3.6,8,8V126.7z"/>
				<rect x="140.3" y="126.7" class="st0" width="137.4" height="89.2"/>
				<circle class="st5" cx="150.9" cy="119.1" r="3.3"/>
				<circle class="st5" cx="161.5" cy="119.1" r="3.3"/>
				<circle class="st5" cx="172.1" cy="119.1" r="3.3"/>
				<path class="st2" d="M174,135.5c0,0.8-0.6,1.4-1.4,1.4h-23.3c-0.8,0-1.4-0.6-1.4-1.4l0,0c0-0.8,0.6-1.4,1.4-1.4h23.3      C173.4,134.2,174,134.8,174,135.5L174,135.5z"/>
				<path class="st2" d="M251.7,142c0,0.8-0.6,1.4-1.4,1.4h-25c-0.8,0-1.4-0.6-1.4-1.4l0,0c0-0.8,0.6-1.4,1.4-1.4h25      C251.1,140.7,251.7,141.3,251.7,142L251.7,142z"/>
				<path class="st2" d="M213.7,148.5c0,0.8-0.6,1.4-1.4,1.4h-28c-0.8,0-1.4-0.6-1.4-1.4l0,0c0-0.8,0.6-1.4,1.4-1.4h28      C213.1,147.2,213.7,147.8,213.7,148.5L213.7,148.5z"/>
				<path class="st2" d="M174,155c0,0.8-0.6,1.4-1.4,1.4h-23.3c-0.8,0-1.4-0.6-1.4-1.4l0,0c0-0.8,0.6-1.4,1.4-1.4h23.3      C173.4,153.7,174,154.3,174,155L174,155z"/>
				<path class="st2" d="M239.5,155c0,0.8-0.6,1.4-1.4,1.4h-32.4c-0.8,0-1.4-0.6-1.4-1.4l0,0c0-0.8,0.6-1.4,1.4-1.4h32.4      C238.8,153.7,239.5,154.3,239.5,155L239.5,155z"/>
				<path class="st2" d="M231.5,161.5c0,0.8-0.6,1.4-1.4,1.4H192c-0.8,0-1.4-0.6-1.4-1.4l0,0c0-0.8,0.6-1.4,1.4-1.4h38.1      C230.9,160.2,231.5,160.8,231.5,161.5L231.5,161.5z"/>
				<path class="st2" d="M212.2,168c0,0.8-0.6,1.4-1.4,1.4h-27c-0.8,0-1.4-0.6-1.4-1.4l0,0c0-0.8,0.6-1.4,1.4-1.4h27      C211.6,166.6,212.2,167.3,212.2,168L212.2,168z"/>
				<path class="st2" d="M191.8,174.5c0,0.8-0.6,1.4-1.4,1.4h-41c-0.8,0-1.4-0.6-1.4-1.4l0,0c0-0.8,0.6-1.4,1.4-1.4h41      C191.2,173.1,191.8,173.8,191.8,174.5L191.8,174.5z"/>
				<path class="st2" d="M254.8,181c0,0.8-0.6,1.4-1.4,1.4H222c-0.8,0-1.4-0.6-1.4-1.4l0,0c0-0.8,0.6-1.4,1.4-1.4h31.4      C254.2,179.6,254.8,180.3,254.8,181L254.8,181z"/>
				<path class="st2" d="M202.8,187.5c0,0.8-0.6,1.4-1.4,1.4h-52.1c-0.8,0-1.4-0.6-1.4-1.4l0,0c0-0.8,0.6-1.4,1.4-1.4h52.1      C202.2,186.1,202.8,186.8,202.8,187.5L202.8,187.5z"/>
				<path class="st2" d="M230,200.5c0,0.8-0.6,1.4-1.4,1.4H201c-0.8,0-1.4-0.6-1.4-1.4l0,0c0-0.8,0.6-1.4,1.4-1.4h27.7      C229.4,199.1,230,199.8,230,200.5L230,200.5z"/>
				<path class="st2" d="M242.3,207c0,0.8-0.6,1.4-1.4,1.4h-28.3c-0.8,0-1.4-0.6-1.4-1.4l0,0c0-0.8,0.6-1.4,1.4-1.4h28.3      C241.7,205.6,242.3,206.3,242.3,207L242.3,207z"/>
				<path class="st4" d="M207.6,135.5c0,0.8-0.6,1.4-1.4,1.4h-28c-0.8,0-1.4-0.6-1.4-1.4l0,0c0-0.8,0.6-1.4,1.4-1.4h28      C207,134.2,207.6,134.8,207.6,135.5L207.6,135.5z"/>
				<path class="st4" d="M192.4,142c0,0.8-0.6,1.4-1.4,1.4h-41.6c-0.8,0-1.4-0.6-1.4-1.4l0,0c0-0.8,0.6-1.4,1.4-1.4H191      C191.7,140.7,192.4,141.3,192.4,142L192.4,142z"/>
				<path class="st4" d="M201.4,155c0,0.8-0.6,1.4-1.4,1.4h-21.8c-0.8,0-1.4-0.6-1.4-1.4l0,0c0-0.8,0.6-1.4,1.4-1.4h21.8      C200.8,153.7,201.4,154.3,201.4,155L201.4,155z"/>
				<path class="st4" d="M265.4,155c0,0.8-0.6,1.4-1.4,1.4h-20.3c-0.8,0-1.4-0.6-1.4-1.4l0,0c0-0.8,0.6-1.4,1.4-1.4H264      C264.8,153.7,265.4,154.3,265.4,155L265.4,155z"/>
				<path class="st4" d="M179.5,168c0,0.8-0.6,1.4-1.4,1.4h-28.7c-0.8,0-1.4-0.6-1.4-1.4l0,0c0-0.8,0.6-1.4,1.4-1.4h28.7      C178.9,166.6,179.5,167.3,179.5,168L179.5,168z"/>
				<path class="st4" d="M248.7,174.5c0,0.8-0.6,1.4-1.4,1.4h-18.5c-0.8,0-1.4-0.6-1.4-1.4l0,0c0-0.8,0.6-1.4,1.4-1.4h18.5      C248,173.1,248.7,173.8,248.7,174.5L248.7,174.5z"/>
				<path class="st4" d="M217.8,181c0,0.8-0.6,1.4-1.4,1.4h-27.7c-0.8,0-1.4-0.6-1.4-1.4l0,0c0-0.8,0.6-1.4,1.4-1.4h27.7      C217.1,179.6,217.8,180.3,217.8,181L217.8,181z"/>
				<path class="st4" d="M236.2,194c0,0.8-0.6,1.4-1.4,1.4h-52.2c-0.8,0-1.4-0.6-1.4-1.4l0,0c0-0.8,0.6-1.4,1.4-1.4h52.2      C235.5,192.6,236.2,193.3,236.2,194L236.2,194z"/>
				<path class="st4" d="M196.7,200.5c0,0.8-0.6,1.4-1.4,1.4h-46c-0.8,0-1.4-0.6-1.4-1.4l0,0c0-0.8,0.6-1.4,1.4-1.4h46      C196.1,199.1,196.7,199.8,196.7,200.5L196.7,200.5z"/>
				<path class="st1" d="M227.2,135.5c0,0.8-0.6,1.4-1.4,1.4h-14c-0.8,0-1.4-0.6-1.4-1.4l0,0c0-0.8,0.6-1.4,1.4-1.4h14      C226.6,134.2,227.2,134.8,227.2,135.5L227.2,135.5z"/>
				<path class="st1" d="M221.1,142c0,0.8-0.6,1.4-1.4,1.4h-23.1c-0.8,0-1.4-0.6-1.4-1.4l0,0c0-0.8,0.6-1.4,1.4-1.4h23.1      C220.4,140.7,221.1,141.3,221.1,142L221.1,142z"/>
				<path class="st1" d="M180.1,148.5c0,0.8-0.6,1.4-1.4,1.4h-29.4c-0.8,0-1.4-0.6-1.4-1.4l0,0c0-0.8,0.6-1.4,1.4-1.4h29.4      C179.5,147.2,180.1,147.8,180.1,148.5L180.1,148.5z"/>
				<path class="st1" d="M167.3,161.5c0,0.8-0.6,1.4-1.4,1.4h-16.5c-0.8,0-1.4-0.6-1.4-1.4l0,0c0-0.8,0.6-1.4,1.4-1.4h16.5      C166.7,160.2,167.3,160.8,167.3,161.5L167.3,161.5z"/>
				<path class="st1" d="M187.7,161.5c0,0.8-0.6,1.4-1.4,1.4h-14.8c-0.8,0-1.4-0.6-1.4-1.4l0,0c0-0.8,0.6-1.4,1.4-1.4h14.8      C187.1,160.2,187.7,160.8,187.7,161.5L187.7,161.5z"/>
				<path class="st1" d="M236.4,168c0,0.8-0.6,1.4-1.4,1.4h-18.5c-0.8,0-1.4-0.6-1.4-1.4l0,0c0-0.8,0.6-1.4,1.4-1.4H235      C235.8,166.6,236.4,167.3,236.4,168L236.4,168z"/>
				<path class="st1" d="M224.5,174.5c0,0.8-0.6,1.4-1.4,1.4h-27c-0.8,0-1.4-0.6-1.4-1.4l0,0c0-0.8,0.6-1.4,1.4-1.4h27      C223.9,173.1,224.5,173.8,224.5,174.5L224.5,174.5z"/>
				<path class="st1" d="M184.5,181c0,0.8-0.6,1.4-1.4,1.4h-33.7c-0.8,0-1.4-0.6-1.4-1.4l0,0c0-0.8,0.6-1.4,1.4-1.4h33.7      C183.8,179.6,184.5,180.3,184.5,181L184.5,181z"/>
				<path class="st1" d="M230,187.5c0,0.8-0.6,1.4-1.4,1.4h-21.5c-0.8,0-1.4-0.6-1.4-1.4l0,0c0-0.8,0.6-1.4,1.4-1.4h21.5      C229.4,186.1,230,186.8,230,187.5L230,187.5z"/>
				<path class="st1" d="M254.8,200.5c0,0.8-0.6,1.4-1.4,1.4h-19.1c-0.8,0-1.4-0.6-1.4-1.4l0,0c0-0.8,0.6-1.4,1.4-1.4h19.1      C254.2,199.1,254.8,199.8,254.8,200.5L254.8,200.5z"/>
				<path class="st1" d="M178.3,194c0,0.8-0.6,1.4-1.4,1.4h-27.6c-0.8,0-1.4-0.6-1.4-1.4l0,0c0-0.8,0.6-1.4,1.4-1.4h27.6      C177.7,192.6,178.3,193.3,178.3,194L178.3,194z"/>
				<path class="st1" d="M208.4,207c0,0.8-0.6,1.4-1.4,1.4h-57.6c-0.8,0-1.4-0.6-1.4-1.4l0,0c0-0.8,0.6-1.4,1.4-1.4H207      C207.7,205.6,208.4,206.3,208.4,207L208.4,207z"/>
			</g>
		</g>
	</g>
</g>
</svg>