<?xml version="1.0" encoding="UTF-8"?>
<svg style="enable-background:new 0 0 256 256;" version="1.1" viewBox="0 0 256 256" xml:space="preserve" xmlns="http://www.w3.org/2000/svg" xmlns:xlink="http://www.w3.org/1999/xlink"><style type="text/css">
	.st0{fill:#00A388;}
	.st1{fill:#EA685E;stroke:#00886F;stroke-width:15;stroke-miterlimit:10;}
	.st2{fill:#E8E8E8;}
	.st3{fill:#FFFFFF;stroke:#00886F;stroke-width:15;stroke-miterlimit:10;}
	.st4{fill:#00886F;}
	.st5{fill:#FFFFFF;}
	.st6{fill:#CCCCCC;}
	.st7{fill:none;stroke:#00A388;stroke-width:4;stroke-miterlimit:10;}
	.st8{fill:#EA685E;}
	.st9{fill:#FFAB80;}
	.st10{fill:#2C3E50;}
	.st11{fill:#4B687F;}
	.st12{fill:none;stroke:#3E5063;stroke-width:4;stroke-miterlimit:10;}
	.st13{fill:#FFD766;}
	.st14{fill:#FFE6D3;}
	.st15{fill:#F09A79;}
	.st16{fill:#C91E01;}
	.st17{fill:#EA3B28;}
	.st18{fill:#0F627F;}
	.st19{fill:#005670;}
	.st20{filter:url(#Adobe_OpacityMaskFilter);}
	.st21{mask:url(#SVGID_2_);}
	.st22{fill:#8C623B;}
	.st23{fill:#E6E6E6;stroke:#005670;stroke-width:16;stroke-miterlimit:10;}
	.st24{opacity:0.6;}
	.st25{fill:#E6E6E6;}
	.st26{fill:#FFEC82;}
	.st27{fill:#FFCF3A;}
	.st28{filter:url(#Adobe_OpacityMaskFilter_1_);}
	.st29{mask:url(#SVGID_1_);}
	.st30{fill:#603813;}
	.st31{fill:#F2F2F2;}
	.st32{fill:#666666;}
</style><g id="Layer_2"><circle class="st2" cx="128" cy="128" r="120"/></g><g id="Layer_1"><g><g><g><path class="st17" d="M133.722031,181.333191h-0.000824v-27.871155c0-0.98172-0.795807-1.777588-1.777542-1.777588h-7.888161      c-0.981728,0-1.777534,0.795868-1.777534,1.777588v54.937225c0,0.981964,0.795807,1.777588,1.777534,1.777588h7.888161      c0.981735,0,1.777542-0.795624,1.777542-1.777588V203.7556h0.000824V181.333191z"/></g></g><g><g><path class="st17" d="M134.289978,50.114639v15.47998h-12.579956v-15.47998c0-3.470093,2.820007-6.290039,6.289978-6.290039      S134.289978,46.644547,134.289978,50.114639z"/></g></g><g><g><rect class="st5" height="85.295502" width="130.588242" x="62.705883" y="59.844742"/></g></g><g><g><path class="st18" d="M180.396515,154.635056h-33.533768v-11.388351c0-2.347198,1.902786-4.25,4.25-4.25h25.033768      c2.347214,0,4.25,1.902802,4.25,4.25V154.635056z"/></g></g><g><g><path class="st18" d="M202,60.754654c0,2.669922-2.169983,4.839966-4.840027,4.839966H58.840027      C56.169983,65.59462,54,63.424576,54,60.754654c0-2.670044,2.169983-4.830078,4.840027-4.830078h138.319946      C199.830017,55.924576,202,58.08461,202,60.754654z"/></g></g><g><g><path class="st17" d="M194.527359,163.292755H61.472645c-4.127029,0-7.472645-3.345612-7.472645-7.472641v-8.004486h148      v8.004486C202,159.947144,198.654388,163.292755,194.527359,163.292755z"/></g></g><g><g><path class="st16" d="M177.458054,212.174759h-98.89093c-2.0634,0-2.569786-2.924271-0.569664-3.59523      c9.443527-3.177383,24.912605-5.443359,42.521111-5.9496h14.975357v0.05069      c17.608505,0.518906,33.077591,2.772217,42.533783,5.9496C179.977158,209.301178,179.508774,212.225128,177.458054,212.174759z"/></g></g><g><g><rect class="st16" height="4.642948" width="11.443238" x="122.278381" y="163.292755"/></g></g></g></g></svg>